# xmcd CD database file
#
# Track frame offsets:
#	150
#	24638
#	48510
#	71448
#	94905
#	115127
#	133986
#	159360
#	189129
#
# Disc length: 2680 seconds
#
# Revision: 0
# Processed by: cddbd v1.5.2PL0 Copyright (c) Steve Scherf et al.
# Submitted via: CDex 1.70beta2
#
DISCID=740a7609
DTITLE=Stéphane Kerecki - Story Tellers
DYEAR=2004
DGENRE=Jazz
TTITLE0=Entrée Libre
TTITLE1=Mathis
TTITLE2=Gourgui
TTITLE3=Story Tellers
TTITLE4=Suite por Motian
TTITLE5=Old and New Tales
TTITLE6=The Straight Horn
TTITLE7=Pour JF
TTITLE8=Berceause Pour Milan
EXTD=YEAR: 2004
EXTT0=
EXTT1=
EXTT2=
EXTT3=
EXTT4=
EXTT5=
EXTT6=
EXTT7=
EXTT8=
PLAYORDER=
